<?xml version="1.0" encoding="utf-8"?>
<!-- Generator: Adobe Illustrator 21.0.0, SVG Export Plug-In . SVG Version: 6.00 Build 0)  -->
<svg version="1.1" id="Layer_1" xmlns="http://www.w3.org/2000/svg" xmlns:xlink="http://www.w3.org/1999/xlink" x="0px" y="0px"
	 viewBox="0 0 996 996" enable-background="new 0 0 996 996" xml:space="preserve">
<g id="Ninja_x21_">
	<circle fill="#E4321F" cx="473.7" cy="407.7" r="404.7"/>
	<path fill="#FFFFFF" d="M493.6,237.8L371,245.5c-14.1,0.9-24.7,13-23.9,27l6.4,102.6c0.9,14.1,13,24.7,27,23.9l122.6-7.7
		c14.1-0.9,24.7-13,23.9-27l-6.4-102.6C519.8,247.6,507.7,237,493.6,237.8z"/>
	<ellipse fill="#DDDDDD" cx="497.6" cy="949.4" rx="494.7" ry="44.6"/>
	<g>
		<path fill="#333333" d="M126.9,493.7c1.1,1.5,13.4,3.9,50.4,19.3c27.9,11.7,41.2,18.8,51.9,25.3c13.8,8.4,21.7,13.2,30.9,22.4
			c3,3,7.8,8.3,21.6,29.5l19.2,31.9c3.7,6.1,10.2,9.4,16.9,9.2c2.8,0.7,5.7,1.5,8.7,2.2c19.9,4.6,49.9,9.1,77.4,11
			c6.2,0.3,12.5,0.4,18.9,0.4c47-0.2,86-8.6,113.7-16.8c0.9-0.5,1.9-0.9,2.8-1.4c0-2.9-0.1-7.3,0-12.6c0.3-17.2,0.4-25.8,2.8-32.3
			c1.7-4.6,6.4-14.2,21.2-22.4h0.2c9-2.2,20.3-4,33.3-4.2c8.5-0.1,16.2,0.5,22.9,1.4l0,0l0.1,0c2,0.5,3.9,1,5.8,1.6l35.8,9.9
			l46.2,12.3l0.3-0.7c-1.1-3.8-1.7-7.8-1.7-11.9c0-14,6.6-26.4,16.8-34.3V560c0,25.8,19.1,47.2,43.9,50.8v7.7h-54.9
			c-4.1,0-7.5,3.4-7.5,7.5v61.7c0,4.1,3.4,7.5,7.5,7.5h54.9v11.7h29.9v-11.7h58.8c4.1,0,7.5-3.4,7.5-7.5V626c0-4.1-3.4-7.5-7.5-7.5
			h-58.8V611c25.7-2.8,45.8-24.5,45.8-51v-26.5c0-26.5-20-48.2-45.8-51v-8.2h58.8c4.1,0,7.5-3.4,7.5-7.5v-61.7
			c0-4.1-3.4-7.5-7.5-7.5h-58.8v-13h-29.9v13h-54.9c-4.1,0-7.5,3.4-7.5,7.5v61.7c0,4.1,3.4,7.5,7.5,7.5h54.9v7.9H752
			c-9.9,0-18.7,5-23.9,12.7l0.1-2.7l-193.1-6.4l-46.3-9.1v-3.8c23.8-10.6,41.1-33.2,44.3-60.1h0.1l0.5-4v-51.4
			c-1.2-4.5-3.7-11.2-9.5-17.2c-9.8-10.2-22.6-11.6-27.7-12.2c-5.2-0.6-9.8-0.3-11.9-0.1c-2.3,0.2-9,0.7-15.4,3
			c-0.6,0.2-1.8,0.6-4.9,1.8c-1.4,0.5-3.4,1.2-6.3,2.2c-2.5,0.9-7.2,2.4-13.1,4.4c-5.3,1.7-9.6,3-10.7,3.3
			c-11.5,3-24.5,6.6-39.3,4.4c-8.8-1.3-19.1-2.9-26.7-11.7c-7.2-8.4-7.9-18.7-8.4-26.3c-0.5-6.7-1.3-18.3,5.6-29.2
			c4.6-7.3,10.7-11.4,14-13.5c6.3-4,11.9-5.6,16.8-7c2.8-0.8,7.1-1.7,18.2-2.9c4.4-0.5,13.7-1.5,25.3-1.5c7.2,0,23.2,0.2,40.7,4.4
			c15.5,3.7,29.8,8.1,41.4,16.6c0.6,0.9,1.7,1.4,2.8,1.4c1.9,0,3.5-1.6,3.5-3.5c0-0.7-0.2-1.4-0.6-2
			c-17.8-67.5-71.6-116.5-135.4-116.5c-65.6,0-120.9,51.9-136.9,122.4c-26.7-20.1-44-52-44-88.1c0-9.4,1.2-18.6,3.4-27.4h-40.3
			c-2.5,9.2-3.8,18.8-3.8,28.8c0,45.5,27.6,84.5,67,101.3c-39.6,6.2-69.8,40.5-69.8,81.8c0,4.3,0.3,8.5,1,12.6h28.7
			c-0.1-1.9-0.2-3.7-0.2-5.6c0-35.6,22.5-65.9,54-77.6c-0.5,5.5-0.7,11-0.7,16.6c0,54.6,22.8,102.9,57.9,132.9
			c7.8,9.6,17.2,17.9,27.9,24.4l-166.2-51.1l0.1-1.1l-4.5-0.2l-1.2-0.4l-3.6-1.3l-54.3-42.7c-2.1-2.1-4.4-3.9-6.9-5.4L99,375l0,0.1
			c-2.9-1.7-6-3-9.3-3.8v-5.2h54.9c4.1,0,7.5-3.4,7.5-7.5v-57.2c0-4.1-3.4-7.5-7.5-7.5H89.7v-12.2H61.6v12.2H10.4
			c-4.1,0-7.5,3.4-7.5,7.5v57.2c0,4.1,3.4,7.5,7.5,7.5h51.2v4H49.6c-20.1,0-36.5,16.3-36.5,36.5v28.8c0,21,11.4,39.3,28.3,49.1
			c1.6,1.3,4.2,2.9,8.2,4.9c4.1,2,7.9,3.9,11.9,5.4v7.1H10.4c-4.1,0-7.5,3.4-7.5,7.5v57.2c0,4.1,3.4,7.5,7.5,7.5h51.2v11h28.1v-11
			h54.9c4.1,0,7.5-3.4,7.5-7.5v-57.2c0-4.1-3.4-7.5-7.5-7.5H89.7v-4.5c1.1-0.3,2.3-0.6,3.4-1c10-3.7,17.8-12.9,20.7-20.1
			c2-4,3.2-8.4,3.2-13.2v-5.9l8.7,0.4l-1.8,36.1L126.9,493.7z"/>
		<path fill="#333333" d="M536.4,632.4C536.4,632.4,536.4,632.4,536.4,632.4C536.4,632.4,536.4,632.4,536.4,632.4
			C536.4,632.4,536.4,632.4,536.4,632.4z"/>
		<path fill="#333333" d="M992.5,945.8c-19.4-34.3-62.1-58.2-111.6-58.2c-16,0-31.3,2.5-45.3,7h-20.1l13.8-15.6l0.2,0.1l11.5-12.8
			l-1.4-0.8l-0.2-0.2l-21.4-12l-0.1,0.1L588.5,725.3c-3.3-2.3-6.6-4.7-10-7.4c-19-15.1-31.5-31.2-39.3-43.1c0-0.1,0-0.2,0-0.4
			c-27.7,8.3-66.7,16.7-113.7,16.8c-47.5,0.2-86.9-8.1-114.9-16.4l-0.4-0.8l-0.9,0.4c-0.1,0-0.1,0-0.2-0.1v0.2l-89.5,44.5
			c-24.6,12.2-34.6,42.1-22.4,66.7l0,0c0.3,0.6,0.6,1.2,1,1.8l-0.2,0.2l1.2,1.5c2.9,4.9,6.4,9.3,10.4,13.1l70.7,88.7
			c-35.3,7.8-64.3,28.1-79.3,54.7c-0.6,1.9-0.8,3.7,0.1,5c0.6,0.8,1.4,1.2,2.4,1.4h114.1H329l0.2,0.2l0.3-0.2h98.1h2.2V948v-5.9
			v-6.7c-0.3-2.9-0.7-6.2-1.4-9.8c-0.2-1.3-1.1-5.6-2.9-11.4l0.1,0c-0.1-0.4-0.3-0.9-0.5-1.3c-0.7-2.1-1.4-4.4-2.3-6.9
			c-0.2-0.4-0.3-0.9-0.5-1.4H422c-1.5-3.5-3.5-7.8-6.2-12.6c-1.6-2.8-3.1-5.4-4.6-7.7l-64.6-79.7l99.6-22.8l315.2,168.9l2.2,1.9
			l0.2-0.3h2H990h1c0-0.1,0-0.2,0-0.3c0.6-0.2,1-0.6,1.4-1.1C993.3,949.5,993.1,947.7,992.5,945.8z"/>
		<path fill="#333333" d="M411.6,318.1c0.2,1,0.8,3.4,2.8,5.6c1.6,1.7,3.3,2.4,4.2,2.8c1,0.5,3.6,1.7,7,1.4c3.7-0.3,6.1-2.1,7-2.8
			c10.8-7.5,21.5-15,32.3-22.4l-54.7-25.3C410.6,291,411.1,304.5,411.6,318.1z"/>
		<path fill="#333333" d="M494.3,303.8c10.3,5.3,20.6,10.5,30.8,15.8c-0.9-11.2-1.8-22.4-2.7-33.6C513,292,503.7,297.9,494.3,303.8z
			"/>
	</g>
</g>
</svg>
